<svg width="262" height="56" viewBox="0 0 262 56" fill="none" xmlns="http://www.w3.org/2000/svg">
<rect width="262" height="56" rx="28" fill="white" fill-opacity="0.28"/>
<rect x="0.5" y="0.5" width="261" height="55" rx="27.5" stroke="white" stroke-opacity="0.1"/>
<path d="M29.81 24.61C29.3847 23.7153 28.7687 23.026 27.962 22.542C27.1553 22.0433 26.2167 21.794 25.146 21.794C24.0753 21.794 23.1073 22.0433 22.242 22.542C21.3913 23.026 20.7167 23.73 20.218 24.654C19.734 25.5633 19.492 26.6193 19.492 27.822C19.492 29.0247 19.734 30.0807 20.218 30.99C20.7167 31.8993 21.3913 32.6033 22.242 33.102C23.1073 33.586 24.0753 33.828 25.146 33.828C26.642 33.828 27.874 33.3807 28.842 32.486C29.81 31.5913 30.3747 30.3813 30.536 28.856H24.42V27.228H32.67V28.768C32.5527 30.0293 32.1567 31.188 31.482 32.244C30.8073 33.2853 29.92 34.114 28.82 34.73C27.72 35.3313 26.4953 35.632 25.146 35.632C23.7233 35.632 22.4253 35.302 21.252 34.642C20.0787 33.9673 19.1473 33.036 18.458 31.848C17.7833 30.66 17.446 29.318 17.446 27.822C17.446 26.326 17.7833 24.984 18.458 23.796C19.1473 22.5933 20.0787 21.662 21.252 21.002C22.4253 20.3273 23.7233 19.99 25.146 19.99C26.774 19.99 28.2113 20.3933 29.458 21.2C30.7193 22.0067 31.636 23.1433 32.208 24.61H29.81ZM45.701 23.444L38.441 41.176H36.373L38.749 35.368L33.887 23.444H36.109L39.893 33.212L43.633 23.444H45.701ZM62.2115 23.224C63.1502 23.224 63.9862 23.422 64.7195 23.818C65.4529 24.1993 66.0322 24.7787 66.4575 25.556C66.8829 26.3333 67.0955 27.2793 67.0955 28.394V35.5H65.1155V28.68C65.1155 27.4773 64.8149 26.5607 64.2135 25.93C63.6269 25.2847 62.8275 24.962 61.8155 24.962C60.7742 24.962 59.9455 25.2993 59.3295 25.974C58.7135 26.634 58.4055 27.5947 58.4055 28.856V35.5H56.4255V28.68C56.4255 27.4773 56.1249 26.5607 55.5235 25.93C54.9369 25.2847 54.1375 24.962 53.1255 24.962C52.0842 24.962 51.2555 25.2993 50.6395 25.974C50.0235 26.634 49.7155 27.5947 49.7155 28.856V35.5H47.7135V23.444H49.7155V25.182C50.1115 24.5513 50.6395 24.0673 51.2995 23.73C51.9742 23.3927 52.7149 23.224 53.5215 23.224C54.5335 23.224 55.4282 23.4513 56.2055 23.906C56.9829 24.3607 57.5622 25.028 57.9435 25.908C58.2809 25.0573 58.8382 24.3973 59.6155 23.928C60.3929 23.4587 61.2582 23.224 62.2115 23.224ZM88.0148 35.5L86.0128 33.476C85.2648 34.2533 84.4654 34.8327 83.6148 35.214C82.7641 35.5807 81.8034 35.764 80.7328 35.764C79.6768 35.764 78.7381 35.5733 77.9168 35.192C77.1101 34.8107 76.4794 34.268 76.0248 33.564C75.5848 32.86 75.3648 32.0387 75.3648 31.1C75.3648 30.0293 75.6654 29.0907 76.2668 28.284C76.8828 27.4627 77.7848 26.8173 78.9728 26.348C78.5034 25.7907 78.1661 25.2773 77.9608 24.808C77.7554 24.3387 77.6528 23.8253 77.6528 23.268C77.6528 22.6227 77.8141 22.0433 78.1368 21.53C78.4741 21.002 78.9508 20.5913 79.5668 20.298C80.1828 20.0047 80.8941 19.858 81.7008 19.858C82.4928 19.858 83.1821 20.012 83.7688 20.32C84.3554 20.628 84.7954 21.0607 85.0888 21.618C85.3821 22.1607 85.5141 22.7693 85.4848 23.444H83.4828C83.4974 22.8427 83.3288 22.3733 82.9768 22.036C82.6248 21.684 82.1701 21.508 81.6128 21.508C81.0261 21.508 80.5494 21.6767 80.1828 22.014C79.8308 22.3367 79.6548 22.7547 79.6548 23.268C79.6548 23.708 79.7721 24.1333 80.0068 24.544C80.2561 24.9547 80.6668 25.4607 81.2388 26.062L85.8148 30.66L86.2108 30.044L87.7068 27.536H89.8628L88.0588 30.66C87.8094 31.1 87.5161 31.562 87.1788 32.046L90.6328 35.5H88.0148ZM80.7328 34.048C81.5248 34.048 82.2361 33.894 82.8668 33.586C83.5121 33.278 84.1208 32.8013 84.6928 32.156L80.1828 27.624C78.3054 28.3427 77.3668 29.4793 77.3668 31.034C77.3668 31.8993 77.6748 32.618 78.2908 33.19C78.9214 33.762 79.7354 34.048 80.7328 34.048ZM107.812 20.166V21.794H103.632V35.5H101.63V21.794H97.4277V20.166H107.812ZM112.278 25.402C112.63 24.7127 113.129 24.1773 113.774 23.796C114.434 23.4147 115.233 23.224 116.172 23.224V25.292H115.644C113.4 25.292 112.278 26.5093 112.278 28.944V35.5H110.276V23.444H112.278V25.402ZM117.735 29.428C117.735 28.196 117.984 27.118 118.483 26.194C118.982 25.2553 119.664 24.5293 120.529 24.016C121.409 23.5027 122.384 23.246 123.455 23.246C124.511 23.246 125.428 23.4733 126.205 23.928C126.982 24.3827 127.562 24.9547 127.943 25.644V23.444H129.967V35.5H127.943V33.256C127.547 33.96 126.953 34.5467 126.161 35.016C125.384 35.4707 124.474 35.698 123.433 35.698C122.362 35.698 121.394 35.434 120.529 34.906C119.664 34.378 118.982 33.6373 118.483 32.684C117.984 31.7307 117.735 30.6453 117.735 29.428ZM127.943 29.45C127.943 28.5407 127.76 27.7487 127.393 27.074C127.026 26.3993 126.528 25.886 125.897 25.534C125.281 25.1673 124.599 24.984 123.851 24.984C123.103 24.984 122.421 25.16 121.805 25.512C121.189 25.864 120.698 26.3773 120.331 27.052C119.964 27.7267 119.781 28.5187 119.781 29.428C119.781 30.352 119.964 31.1587 120.331 31.848C120.698 32.5227 121.189 33.0433 121.805 33.41C122.421 33.762 123.103 33.938 123.851 33.938C124.599 33.938 125.281 33.762 125.897 33.41C126.528 33.0433 127.026 32.5227 127.393 31.848C127.76 31.1587 127.943 30.3593 127.943 29.45ZM134.384 21.486C134.003 21.486 133.68 21.354 133.416 21.09C133.152 20.826 133.02 20.5033 133.02 20.122C133.02 19.7407 133.152 19.418 133.416 19.154C133.68 18.89 134.003 18.758 134.384 18.758C134.751 18.758 135.059 18.89 135.308 19.154C135.572 19.418 135.704 19.7407 135.704 20.122C135.704 20.5033 135.572 20.826 135.308 21.09C135.059 21.354 134.751 21.486 134.384 21.486ZM135.352 23.444V35.5H133.35V23.444H135.352ZM144.638 23.224C146.105 23.224 147.293 23.6713 148.202 24.566C149.112 25.446 149.566 26.722 149.566 28.394V35.5H147.586V28.68C147.586 27.4773 147.286 26.5607 146.684 25.93C146.083 25.2847 145.262 24.962 144.22 24.962C143.164 24.962 142.321 25.292 141.69 25.952C141.074 26.612 140.766 27.5727 140.766 28.834V35.5H138.764V23.444H140.766V25.16C141.162 24.544 141.698 24.0673 142.372 23.73C143.062 23.3927 143.817 23.224 144.638 23.224ZM153.871 21.486C153.489 21.486 153.167 21.354 152.903 21.09C152.639 20.826 152.507 20.5033 152.507 20.122C152.507 19.7407 152.639 19.418 152.903 19.154C153.167 18.89 153.489 18.758 153.871 18.758C154.237 18.758 154.545 18.89 154.795 19.154C155.059 19.418 155.191 19.7407 155.191 20.122C155.191 20.5033 155.059 20.826 154.795 21.09C154.545 21.354 154.237 21.486 153.871 21.486ZM154.839 23.444V35.5H152.837V23.444H154.839ZM164.125 23.224C165.591 23.224 166.779 23.6713 167.689 24.566C168.598 25.446 169.053 26.722 169.053 28.394V35.5H167.073V28.68C167.073 27.4773 166.772 26.5607 166.171 25.93C165.569 25.2847 164.748 24.962 163.707 24.962C162.651 24.962 161.807 25.292 161.177 25.952C160.561 26.612 160.253 27.5727 160.253 28.834V35.5H158.251V23.444H160.253V25.16C160.649 24.544 161.184 24.0673 161.859 23.73C162.548 23.3927 163.303 23.224 164.125 23.224ZM177.295 23.246C178.336 23.246 179.246 23.4733 180.023 23.928C180.815 24.3827 181.402 24.9547 181.783 25.644V23.444H183.807V35.764C183.807 36.864 183.572 37.8393 183.103 38.69C182.634 39.5553 181.959 40.23 181.079 40.714C180.214 41.198 179.202 41.44 178.043 41.44C176.459 41.44 175.139 41.066 174.083 40.318C173.027 39.57 172.404 38.5507 172.213 37.26H174.193C174.413 37.9933 174.868 38.58 175.557 39.02C176.246 39.4747 177.075 39.702 178.043 39.702C179.143 39.702 180.038 39.3573 180.727 38.668C181.431 37.9787 181.783 37.0107 181.783 35.764V33.234C181.387 33.938 180.8 34.5247 180.023 34.994C179.246 35.4633 178.336 35.698 177.295 35.698C176.224 35.698 175.249 35.434 174.369 34.906C173.504 34.378 172.822 33.6373 172.323 32.684C171.824 31.7307 171.575 30.6453 171.575 29.428C171.575 28.196 171.824 27.118 172.323 26.194C172.822 25.2553 173.504 24.5293 174.369 24.016C175.249 23.5027 176.224 23.246 177.295 23.246ZM181.783 29.45C181.783 28.5407 181.6 27.7487 181.233 27.074C180.866 26.3993 180.368 25.886 179.737 25.534C179.121 25.1673 178.439 24.984 177.691 24.984C176.943 24.984 176.261 25.16 175.645 25.512C175.029 25.864 174.538 26.3773 174.171 27.052C173.804 27.7267 173.621 28.5187 173.621 29.428C173.621 30.352 173.804 31.1587 174.171 31.848C174.538 32.5227 175.029 33.0433 175.645 33.41C176.261 33.762 176.943 33.938 177.691 33.938C178.439 33.938 179.121 33.762 179.737 33.41C180.368 33.0433 180.866 32.5227 181.233 31.848C181.6 31.1587 181.783 30.3593 181.783 29.45ZM204.671 24.61C204.246 23.7153 203.63 23.026 202.823 22.542C202.017 22.0433 201.078 21.794 200.007 21.794C198.937 21.794 197.969 22.0433 197.103 22.542C196.253 23.026 195.578 23.73 195.079 24.654C194.595 25.5633 194.353 26.6193 194.353 27.822C194.353 29.0247 194.595 30.0807 195.079 30.99C195.578 31.8993 196.253 32.6033 197.103 33.102C197.969 33.586 198.937 33.828 200.007 33.828C201.503 33.828 202.735 33.3807 203.703 32.486C204.671 31.5913 205.236 30.3813 205.397 28.856H199.281V27.228H207.531V28.768C207.414 30.0293 207.018 31.188 206.343 32.244C205.669 33.2853 204.781 34.114 203.681 34.73C202.581 35.3313 201.357 35.632 200.007 35.632C198.585 35.632 197.287 35.302 196.113 34.642C194.94 33.9673 194.009 33.036 193.319 31.848C192.645 30.66 192.307 29.318 192.307 27.822C192.307 26.326 192.645 24.984 193.319 23.796C194.009 22.5933 194.94 21.662 196.113 21.002C197.287 20.3273 198.585 19.99 200.007 19.99C201.635 19.99 203.073 20.3933 204.319 21.2C205.581 22.0067 206.497 23.1433 207.069 24.61H204.671ZM221.178 29.01C221.178 29.3913 221.156 29.7947 221.112 30.22H211.476C211.55 31.408 211.953 32.3393 212.686 33.014C213.434 33.674 214.336 34.004 215.392 34.004C216.258 34.004 216.976 33.806 217.548 33.41C218.135 32.9993 218.546 32.4567 218.78 31.782H220.936C220.614 32.9407 219.968 33.8867 219 34.62C218.032 35.3387 216.83 35.698 215.392 35.698C214.248 35.698 213.222 35.4413 212.312 34.928C211.418 34.4147 210.714 33.6887 210.2 32.75C209.687 31.7967 209.43 30.6967 209.43 29.45C209.43 28.2033 209.68 27.1107 210.178 26.172C210.677 25.2333 211.374 24.5147 212.268 24.016C213.178 23.5027 214.219 23.246 215.392 23.246C216.536 23.246 217.548 23.4953 218.428 23.994C219.308 24.4927 219.983 25.182 220.452 26.062C220.936 26.9273 221.178 27.91 221.178 29.01ZM219.11 28.592C219.11 27.8293 218.942 27.1767 218.604 26.634C218.267 26.0767 217.805 25.6587 217.218 25.38C216.646 25.0867 216.008 24.94 215.304 24.94C214.292 24.94 213.427 25.2627 212.708 25.908C212.004 26.5533 211.601 27.448 211.498 28.592H219.11ZM223.073 29.428C223.073 28.196 223.322 27.118 223.821 26.194C224.32 25.2553 225.002 24.5293 225.867 24.016C226.747 23.5027 227.722 23.246 228.793 23.246C229.849 23.246 230.766 23.4733 231.543 23.928C232.32 24.3827 232.9 24.9547 233.281 25.644V23.444H235.305V35.5H233.281V33.256C232.885 33.96 232.291 34.5467 231.499 35.016C230.722 35.4707 229.812 35.698 228.771 35.698C227.7 35.698 226.732 35.434 225.867 34.906C225.002 34.378 224.32 33.6373 223.821 32.684C223.322 31.7307 223.073 30.6453 223.073 29.428ZM233.281 29.45C233.281 28.5407 233.098 27.7487 232.731 27.074C232.364 26.3993 231.866 25.886 231.235 25.534C230.619 25.1673 229.937 24.984 229.189 24.984C228.441 24.984 227.759 25.16 227.143 25.512C226.527 25.864 226.036 26.3773 225.669 27.052C225.302 27.7267 225.119 28.5187 225.119 29.428C225.119 30.352 225.302 31.1587 225.669 31.848C226.036 32.5227 226.527 33.0433 227.143 33.41C227.759 33.762 228.441 33.938 229.189 33.938C229.937 33.938 230.619 33.762 231.235 33.41C231.866 33.0433 232.364 32.5227 232.731 31.848C233.098 31.1587 233.281 30.3593 233.281 29.45ZM240.69 25.402C241.042 24.7127 241.541 24.1773 242.186 23.796C242.846 23.4147 243.645 23.224 244.584 23.224V25.292H244.056C241.812 25.292 240.69 26.5093 240.69 28.944V35.5H238.688V23.444H240.69V25.402Z" fill="#353F7A"/>
</svg>
